<?xml version="1.0" encoding="utf-8"?>
<!-- Generator: Adobe Illustrator 24.3.0, SVG Export Plug-In . SVG Version: 6.00 Build 0)  -->
<svg version="1.1" id="圖層_1" xmlns="http://www.w3.org/2000/svg" xmlns:xlink="http://www.w3.org/1999/xlink" x="0px" y="0px"
	 viewBox="0 0 150 32" style="enable-background:new 0 0 150 32;" xml:space="preserve">
<style type="text/css">
	.st0{fill:#FFFFFF;}
</style>
<g>
	<g>
		<g>
			<g>
				<path class="st0" d="M97.3,28.35c-0.05,0.1-0.18,0.2-0.39,0.3c-0.21,0.09-0.38,0.14-0.53,0.14c-1.16,0-1.74-0.63-1.74-1.88
					c0-0.57,0.16-1.04,0.47-1.41c0.31-0.37,0.71-0.55,1.22-0.55c0.41,0,0.73,0.17,0.97,0.52V28.35z M98.24,29.47v-7.36H97.3v2.42
					c-0.28-0.25-0.7-0.38-1.24-0.38c-0.65,0-1.22,0.28-1.69,0.83c-0.47,0.56-0.71,1.22-0.71,2.01c0,0.78,0.2,1.41,0.61,1.87
					c0.41,0.47,0.95,0.7,1.61,0.7c0.62,0,1.09-0.16,1.42-0.48v0.39H98.24z"/>
				<path class="st0" d="M102.79,25.35c0.24,0.25,0.35,0.57,0.35,0.94h-2.93c0.04-0.38,0.19-0.69,0.46-0.95
					c0.28-0.27,0.63-0.4,1.05-0.4C102.18,24.94,102.53,25.07,102.79,25.35z M104.08,26.39c0-0.66-0.21-1.2-0.62-1.61
					c-0.43-0.42-1.02-0.63-1.77-0.63c-0.65,0-1.21,0.23-1.68,0.7c-0.53,0.52-0.79,1.21-0.79,2.08c0,0.83,0.26,1.49,0.77,1.98
					c0.46,0.45,1.02,0.67,1.69,0.67c0.46,0,0.88-0.07,1.25-0.2c0.3-0.11,0.52-0.23,0.67-0.38l-0.39-0.67
					c-0.36,0.31-0.81,0.46-1.34,0.46c-0.47,0-0.85-0.14-1.15-0.43c-0.33-0.33-0.5-0.79-0.5-1.4h3.8
					C104.06,26.79,104.08,26.6,104.08,26.39z"/>
				<path class="st0" d="M104.73,29.16l0.33-0.88c0.52,0.34,0.94,0.51,1.25,0.51c0.58,0,0.86-0.24,0.86-0.72
					c0-0.34-0.28-0.64-0.84-0.89c-0.43-0.19-0.72-0.34-0.87-0.44c-0.15-0.1-0.28-0.21-0.39-0.34c-0.11-0.13-0.19-0.26-0.24-0.41
					c-0.06-0.14-0.08-0.3-0.08-0.47c0-0.42,0.16-0.77,0.47-1c0.31-0.24,0.73-0.36,1.24-0.36c0.38,0,0.87,0.12,1.45,0.36l-0.26,0.86
					c-0.37-0.28-0.74-0.43-1.12-0.43c-0.22,0-0.41,0.05-0.56,0.15c-0.15,0.1-0.23,0.24-0.23,0.39c0,0.33,0.19,0.59,0.57,0.76
					l0.67,0.3c0.41,0.19,0.7,0.4,0.89,0.64c0.19,0.24,0.28,0.54,0.28,0.89c0,0.47-0.17,0.83-0.49,1.1c-0.33,0.27-0.79,0.4-1.38,0.4
					C105.74,29.57,105.22,29.44,104.73,29.16z"/>
				<path class="st0" d="M110.12,22.28c0.16,0,0.3,0.06,0.41,0.17c0.11,0.11,0.17,0.24,0.17,0.4c0,0.16-0.06,0.29-0.17,0.41
					c-0.11,0.11-0.25,0.17-0.41,0.17c-0.16,0-0.29-0.06-0.4-0.17c-0.11-0.11-0.17-0.25-0.17-0.41c0-0.16,0.05-0.3,0.17-0.41
					C109.83,22.33,109.96,22.28,110.12,22.28z M109.61,29.47v-4.43h-0.72v-0.79h1.65v5.22H109.61z"/>
				<path class="st0" d="M114.57,25.23c0.2,0.22,0.3,0.5,0.3,0.83c0,0.38-0.09,0.68-0.28,0.91c-0.18,0.23-0.44,0.35-0.78,0.35
					c-0.34,0-0.61-0.12-0.8-0.36c-0.2-0.24-0.3-0.54-0.3-0.9c0-0.33,0.1-0.6,0.31-0.83c0.2-0.23,0.47-0.34,0.8-0.34
					C114.11,24.9,114.37,25.01,114.57,25.23z M112.74,31.34c0.38,0.12,0.74,0.18,1.08,0.18c0.67,0,1.22-0.15,1.66-0.44
					c0.43-0.3,0.66-0.68,0.66-1.17c0-0.44-0.15-0.78-0.44-1.02c-0.29-0.25-0.69-0.37-1.22-0.37c-0.14,0-0.37,0.03-0.66,0.08
					c-0.3,0.05-0.52,0.08-0.66,0.08c-0.32,0-0.48-0.07-0.48-0.2c0-0.1,0.08-0.19,0.23-0.24c0.16-0.07,0.28-0.1,0.37-0.11l0.78-0.08
					c0.54-0.05,0.98-0.26,1.3-0.61c0.34-0.35,0.5-0.8,0.5-1.32c0-0.5-0.12-0.9-0.36-1.21l0.55-0.41l-0.61-0.57l-0.47,0.55
					c-0.29-0.21-0.7-0.32-1.21-0.32c-0.56,0-1.04,0.18-1.42,0.54c-0.38,0.37-0.57,0.82-0.57,1.36c0,0.85,0.37,1.45,1.11,1.79
					c-0.26,0.06-0.48,0.16-0.65,0.31c-0.17,0.14-0.26,0.3-0.26,0.47c0,0.56,0.37,0.85,1.12,0.85c0.15,0,0.37-0.03,0.65-0.08
					c0.28-0.06,0.47-0.08,0.57-0.08c0.62,0,0.92,0.22,0.92,0.64c0,0.22-0.12,0.4-0.36,0.54c-0.25,0.15-0.58,0.22-1.01,0.22
					c-0.46,0-0.96-0.18-1.51-0.54l-0.51,0.74C112.06,31.08,112.36,31.22,112.74,31.34z"/>
				<path class="st0" d="M120.32,29.47v-3.03c0-0.56-0.08-0.95-0.25-1.17c-0.17-0.22-0.45-0.33-0.85-0.33
					c-0.22,0-0.44,0.06-0.67,0.19c-0.23,0.13-0.41,0.28-0.54,0.47v3.88h-0.93v-5.22h0.64l0.3,0.67c0.31-0.52,0.81-0.78,1.51-0.78
					c1.16,0,1.73,0.7,1.73,2.09v3.24H120.32z"/>
			</g>
			<g>
				<path class="st0" d="M33.81,29.48v-4.44h-0.72v-0.78h1.66v5.22H33.81z M34.32,22.28c0.16,0,0.3,0.06,0.41,0.17
					c0.11,0.11,0.17,0.25,0.17,0.4c0,0.16-0.06,0.3-0.17,0.41c-0.11,0.11-0.25,0.17-0.41,0.17c-0.16,0-0.29-0.06-0.41-0.17
					c-0.11-0.11-0.17-0.25-0.17-0.41c0-0.16,0.06-0.29,0.17-0.4C34.03,22.34,34.16,22.28,34.32,22.28z"/>
				<path class="st0" d="M39.48,29.48v-3.04c0-0.56-0.08-0.95-0.25-1.17c-0.17-0.22-0.45-0.33-0.85-0.33
					c-0.21,0-0.44,0.06-0.67,0.19s-0.41,0.28-0.54,0.47v3.88h-0.94v-5.22h0.64l0.3,0.67c0.31-0.51,0.81-0.77,1.51-0.77
					c1.16,0,1.73,0.7,1.73,2.09v3.23H39.48z"/>
				<path class="st0" d="M42.08,24.99h-0.61v-0.73h0.61v-1.09l0.94-0.36v1.45h1.45v0.73h-1.45v2.59c0,0.44,0.07,0.75,0.22,0.94
					c0.15,0.19,0.39,0.28,0.72,0.28c0.24,0,0.49-0.06,0.74-0.18l0.14,0.81c-0.39,0.1-0.81,0.15-1.28,0.15
					c-0.42,0-0.77-0.15-1.06-0.46c-0.29-0.31-0.43-0.69-0.43-1.16V24.99z"/>
				<path class="st0" d="M50.18,26.96h-3.8c0,0.61,0.17,1.08,0.51,1.41c0.3,0.29,0.68,0.43,1.15,0.43c0.54,0,0.98-0.15,1.34-0.46
					L49.78,29c-0.14,0.14-0.37,0.27-0.66,0.37c-0.37,0.14-0.79,0.2-1.25,0.2c-0.66,0-1.23-0.22-1.69-0.67
					c-0.52-0.49-0.77-1.15-0.77-1.98c0-0.86,0.26-1.55,0.79-2.07c0.47-0.46,1.03-0.7,1.68-0.7c0.75,0,1.34,0.21,1.77,0.63
					c0.41,0.4,0.62,0.94,0.62,1.6C50.26,26.6,50.23,26.79,50.18,26.96z M47.91,24.94c-0.42,0-0.77,0.13-1.05,0.4
					c-0.27,0.25-0.42,0.57-0.46,0.95h2.92c0-0.37-0.12-0.69-0.35-0.94C48.71,25.08,48.36,24.94,47.91,24.94z"/>
				<path class="st0" d="M54.11,25.15c-0.2-0.14-0.41-0.21-0.62-0.21c-0.33,0-0.62,0.15-0.87,0.45c-0.25,0.3-0.37,0.67-0.37,1.09
					v2.99h-0.94v-5.22h0.94v0.83c0.34-0.62,0.85-0.93,1.52-0.93c0.17,0,0.41,0.03,0.72,0.09L54.11,25.15z"/>
				<path class="st0" d="M58.41,29.48v-3.04c0-0.56-0.08-0.95-0.25-1.17s-0.45-0.33-0.85-0.33c-0.21,0-0.44,0.06-0.67,0.19
					s-0.41,0.28-0.54,0.47v3.88h-0.94v-5.22h0.64l0.3,0.67c0.31-0.51,0.81-0.77,1.51-0.77c1.16,0,1.73,0.7,1.73,2.09v3.23H58.41z"/>
				<path class="st0" d="M63.65,28.88c-0.37,0.47-0.95,0.7-1.72,0.7c-0.41,0-0.77-0.15-1.08-0.45c-0.3-0.3-0.46-0.67-0.46-1.11
					c0-0.53,0.23-0.98,0.7-1.34c0.47-0.37,1.06-0.55,1.79-0.55c0.2,0,0.42,0.04,0.67,0.13c0-0.85-0.38-1.27-1.14-1.27
					c-0.58,0-1.03,0.16-1.35,0.47l-0.39-0.78c0.18-0.14,0.42-0.27,0.74-0.37c0.31-0.1,0.61-0.15,0.9-0.15
					c0.77,0,1.32,0.17,1.67,0.52c0.35,0.34,0.52,0.89,0.52,1.64v1.87c0,0.46,0.14,0.76,0.41,0.92v0.46c-0.38,0-0.67-0.05-0.85-0.16
					C63.87,29.3,63.74,29.13,63.65,28.88z M63.57,26.91c-0.3-0.07-0.5-0.1-0.62-0.1c-0.47,0-0.86,0.12-1.16,0.36
					s-0.45,0.53-0.45,0.85c0,0.54,0.32,0.81,0.97,0.81c0.47,0,0.89-0.22,1.26-0.67V26.91z"/>
				<path class="st0" d="M66.31,24.99H65.7v-0.73h0.61v-1.09l0.94-0.36v1.45h1.45v0.73h-1.45v2.59c0,0.44,0.07,0.75,0.22,0.94
					s0.39,0.28,0.72,0.28c0.24,0,0.49-0.06,0.74-0.18l0.14,0.81c-0.39,0.1-0.81,0.15-1.28,0.15c-0.42,0-0.77-0.15-1.06-0.46
					c-0.29-0.31-0.43-0.69-0.43-1.16V24.99z"/>
				<path class="st0" d="M70.43,29.48v-4.44H69.7v-0.78h1.66v5.22H70.43z M70.94,22.28c0.16,0,0.3,0.06,0.41,0.17
					c0.11,0.11,0.17,0.25,0.17,0.4c0,0.16-0.06,0.3-0.17,0.41c-0.11,0.11-0.25,0.17-0.41,0.17c-0.16,0-0.29-0.06-0.41-0.17
					c-0.11-0.11-0.17-0.25-0.17-0.41c0-0.16,0.06-0.29,0.17-0.4C70.64,22.34,70.78,22.28,70.94,22.28z"/>
				<path class="st0" d="M72.5,26.86c0-0.81,0.22-1.46,0.66-1.95c0.44-0.5,1.02-0.74,1.73-0.74c0.76,0,1.34,0.24,1.76,0.71
					c0.42,0.48,0.63,1.14,0.63,1.98c0,0.84-0.21,1.51-0.64,1.99c-0.43,0.49-1.01,0.73-1.74,0.73c-0.75,0-1.34-0.25-1.76-0.74
					C72.71,28.35,72.5,27.69,72.5,26.86z M73.49,26.86c0,1.31,0.47,1.97,1.4,1.97c0.44,0,0.78-0.18,1.03-0.53
					c0.25-0.35,0.37-0.83,0.37-1.44c0-1.29-0.47-1.94-1.4-1.94c-0.43,0-0.77,0.17-1.02,0.52C73.62,25.78,73.49,26.25,73.49,26.86z"
					/>
				<path class="st0" d="M81.51,29.48v-3.04c0-0.56-0.08-0.95-0.25-1.17c-0.17-0.22-0.45-0.33-0.85-0.33
					c-0.21,0-0.44,0.06-0.67,0.19s-0.41,0.28-0.54,0.47v3.88h-0.94v-5.22h0.64l0.3,0.67c0.31-0.51,0.81-0.77,1.51-0.77
					c1.16,0,1.73,0.7,1.73,2.09v3.23H81.51z"/>
				<path class="st0" d="M86.75,28.88c-0.37,0.47-0.95,0.7-1.72,0.7c-0.41,0-0.77-0.15-1.08-0.45s-0.46-0.67-0.46-1.11
					c0-0.53,0.23-0.98,0.7-1.34c0.47-0.37,1.06-0.55,1.79-0.55c0.2,0,0.42,0.04,0.67,0.13c0-0.85-0.38-1.27-1.14-1.27
					c-0.58,0-1.03,0.16-1.35,0.47l-0.39-0.78c0.18-0.14,0.42-0.27,0.74-0.37c0.31-0.1,0.61-0.15,0.9-0.15
					c0.76,0,1.32,0.17,1.67,0.52c0.35,0.34,0.52,0.89,0.52,1.64v1.87c0,0.46,0.14,0.76,0.41,0.92v0.46c-0.38,0-0.67-0.05-0.85-0.16
					C86.97,29.3,86.83,29.13,86.75,28.88z M86.66,26.91c-0.3-0.07-0.5-0.1-0.62-0.1c-0.47,0-0.86,0.12-1.16,0.36
					c-0.3,0.24-0.45,0.53-0.45,0.85c0,0.54,0.32,0.81,0.97,0.81c0.47,0,0.89-0.22,1.26-0.67V26.91z"/>
				<path class="st0" d="M89.14,28v-5.89h0.94v5.73c0,0.28,0.08,0.5,0.24,0.66c0.16,0.16,0.37,0.24,0.64,0.24v0.83
					C89.75,29.58,89.14,29.05,89.14,28z"/>
			</g>
			<path class="st0" d="M125.27,30.91l0.51-0.74c0.54,0.36,1.05,0.54,1.51,0.54c0.42,0,0.76-0.07,1-0.22
				c0.24-0.14,0.37-0.32,0.37-0.54c0-0.42-0.31-0.63-0.93-0.63c-0.11,0-0.3,0.03-0.57,0.08c-0.28,0.05-0.49,0.08-0.64,0.08
				c-0.75,0-1.12-0.28-1.12-0.84c0-0.17,0.09-0.33,0.26-0.47c0.18-0.14,0.39-0.24,0.65-0.3c-0.74-0.34-1.11-0.94-1.11-1.79
				c0-0.55,0.19-1,0.58-1.37c0.38-0.36,0.86-0.55,1.42-0.55c0.52,0,0.92,0.11,1.22,0.32l0.47-0.56l0.61,0.57l-0.56,0.42
				c0.24,0.31,0.36,0.71,0.36,1.21c0,0.53-0.17,0.97-0.5,1.33c-0.33,0.36-0.77,0.56-1.31,0.61l-0.77,0.08
				c-0.09,0.01-0.21,0.04-0.37,0.11c-0.15,0.06-0.23,0.14-0.23,0.24c0,0.13,0.16,0.2,0.48,0.2c0.14,0,0.36-0.03,0.66-0.08
				c0.3-0.05,0.52-0.08,0.67-0.08c0.52,0,0.92,0.12,1.21,0.37c0.29,0.25,0.44,0.59,0.44,1.02c0,0.48-0.22,0.87-0.65,1.17
				c-0.43,0.3-0.99,0.44-1.65,0.44c-0.34,0-0.7-0.06-1.08-0.18C125.8,31.23,125.5,31.08,125.27,30.91z M127.25,24.91
				c-0.33,0-0.59,0.11-0.8,0.34c-0.21,0.23-0.31,0.5-0.31,0.83c0,0.36,0.1,0.67,0.3,0.9c0.2,0.24,0.47,0.36,0.81,0.36
				c0.33,0,0.59-0.12,0.78-0.35s0.28-0.54,0.28-0.91c0-0.33-0.1-0.6-0.3-0.83C127.81,25.02,127.56,24.91,127.25,24.91z"/>
			<path class="st0" d="M133.39,25.15c-0.2-0.14-0.41-0.21-0.62-0.21c-0.33,0-0.62,0.15-0.87,0.45s-0.37,0.67-0.37,1.09v2.99h-0.94
				v-5.22h0.94v0.83c0.34-0.62,0.85-0.93,1.52-0.93c0.17,0,0.41,0.03,0.72,0.09L133.39,25.15z"/>
			<path class="st0" d="M134.1,26.86c0-0.81,0.22-1.46,0.66-1.95c0.44-0.5,1.02-0.74,1.73-0.74c0.76,0,1.34,0.24,1.76,0.71
				c0.42,0.48,0.63,1.14,0.63,1.98c0,0.84-0.21,1.51-0.64,1.99c-0.43,0.49-1.01,0.73-1.74,0.73c-0.75,0-1.34-0.25-1.76-0.74
				C134.31,28.35,134.1,27.69,134.1,26.86z M135.08,26.86c0,1.31,0.47,1.97,1.4,1.97c0.44,0,0.78-0.18,1.03-0.53
				c0.25-0.35,0.37-0.83,0.37-1.44c0-1.29-0.47-1.94-1.4-1.94c-0.43,0-0.77,0.17-1.02,0.52C135.21,25.78,135.08,26.25,135.08,26.86z
				"/>
			<path class="st0" d="M140.74,24.26v3.33c0,0.81,0.35,1.21,1.06,1.21c0.31,0,0.59-0.09,0.85-0.26c0.26-0.18,0.43-0.38,0.51-0.61
				v-3.67h0.94v5.22h-0.94v-0.72c-0.11,0.2-0.32,0.39-0.63,0.56c-0.32,0.17-0.63,0.26-0.93,0.26c-0.58,0-1.02-0.16-1.33-0.49
				c-0.31-0.33-0.46-0.79-0.46-1.4v-3.43H140.74z"/>
			<path class="st0" d="M146.3,29.19v2.34h-0.94v-7.27h0.94v0.43c0.35-0.35,0.78-0.53,1.29-0.53c0.75,0,1.33,0.23,1.75,0.69
				c0.42,0.46,0.63,1.14,0.63,2.03c0,0.79-0.21,1.44-0.63,1.94c-0.42,0.5-1.03,0.75-1.82,0.75c-0.22,0-0.46-0.04-0.72-0.12
				C146.54,29.38,146.37,29.29,146.3,29.19z M146.3,25.38v3.04c0.06,0.09,0.18,0.17,0.37,0.25c0.19,0.08,0.38,0.12,0.56,0.12
				c1.16,0,1.74-0.65,1.74-1.95c0-0.66-0.14-1.14-0.41-1.45c-0.28-0.31-0.72-0.46-1.32-0.46c-0.13,0-0.29,0.05-0.48,0.14
				C146.57,25.17,146.41,25.27,146.3,25.38z"/>
			<g>
				<path class="st0" d="M24.21,11.82c0,0.99-1.98,1.47-5.94,1.47h-6.8c-4,0-5.97-0.48-5.97-1.47V4.99c0-1.04,1.98-1.55,5.97-1.55
					h6.8c3.96,0,5.94,0.51,5.94,1.55V11.82z M29.67,11.87V4.92c0-1.85-1.3-3.1-3.88-3.79c-1.7-0.46-4.23-0.66-7.63-0.66h-6.69
					c-7.63,0-11.43,1.47-11.43,4.44v6.98c0,1.65,1.35,2.87,4.04,3.61c1.94,0.53,4.43,0.81,7.4,0.81h6.69
					C25.83,16.32,29.67,14.82,29.67,11.87z"/>
				<path class="st0" d="M44.68,16.32c-3.36,0-5.91-0.22-7.66-0.62c-2.75-0.67-4.1-1.86-4.1-3.64V0.76h5.34v11.29
					c0,0.62,0.89,1.02,2.75,1.21c0.77,0.07,2.09,0.1,3.86,0.1h13.22v2.95H44.68z"/>
				<path class="st0" d="M61.46,16.39V0.73h5.33v15.66H61.46z"/>
				<path class="st0" d="M81.95,16.32c-3.37,0-5.92-0.22-7.66-0.62c-2.74-0.67-4.09-1.86-4.09-3.64V0.76h5.33v11.29
					c0,0.62,0.89,1.02,2.74,1.21c0.77,0.07,2.09,0.1,3.87,0.1h13.22v2.95H81.95z"/>
				<path class="st0" d="M105.97,9.94v6.45h-5.3V9.94L85.52,0.66h7.23l10.55,6.48l10.63-6.48h7.04L105.97,9.94z"/>
			</g>
		</g>
	</g>
</g>
</svg>
