<?xml version="1.0" encoding="utf-8"?>
<!-- Generator: Adobe Illustrator 24.3.0, SVG Export Plug-In . SVG Version: 6.00 Build 0)  -->
<svg version="1.1" id="圖層_1" xmlns="http://www.w3.org/2000/svg" xmlns:xlink="http://www.w3.org/1999/xlink" x="0px" y="0px"
	 viewBox="0 0 448 512" style="enable-background:new 0 0 448 512;" xml:space="preserve">
<style type="text/css">
	.st0{fill:#FFFFFF;}
</style>
<path class="st0" d="M224,43C100.8,43,0.5,124.4,0.5,224.4c0,89.6,79.5,164.7,186.9,179c26.2,5.6,23.2,15.2,17.3,50.4
	c-1,5.6-4.5,22.1,19.3,12.1c23.8-10,128.7-75.8,175.7-129.8c32.3-35.6,47.8-71.7,47.8-111.7C447.5,124.4,347.2,43,224,43z
	 M145.1,277.7c0,2.5-1.9,4.4-4.4,4.4H78.1c-1.2,0-2.2-0.5-3-1.2c-0.8-0.8-1.2-1.8-1.2-3v-97.4c0-2.5,1.9-4.4,4.4-4.4h15.6
	c2.5,0,4.4,1.9,4.4,4.4v77.3h42.6c2.3,0,4.2,2.1,4.2,4.4V277.7z M182.9,277.9c0,2.5-1.9,4.4-4.4,4.4h-15.6c-2.5,0-4.4-1.9-4.4-4.4
	v-97.4c0-2.5,1.9-4.4,4.4-4.4h15.6c2.5,0,4.4,2.1,4.4,4.4V277.9z M290.9,277.9c0,2.5-1.9,4.4-4.4,4.4h-15.6c-1.5,0-2.9-0.8-3.6-1.8
	l-44.7-60.3V278c0,2.5-1.9,4.4-4.4,4.4h-15.6c-2.5,0-4.4-1.9-4.4-4.4v-97.4c0-2.5,1.9-4.4,4.4-4.4h15.5c1.4,0,2.9,0.7,3.6,1.9
	l44.7,60.3v-57.8c0-2.5,1.9-4.4,4.4-4.4h15.6c2.5-0.1,4.5,1.9,4.5,4.2V277.9z M377.5,196c0,2.5-1.9,4.4-4.4,4.4h-42.6v16.4h42.6
	c2.5,0,4.4,1.9,4.4,4.4V237c0,2.5-1.9,4.4-4.4,4.4h-42.6v16.4h42.6c2.5,0,4.4,1.9,4.4,4.4v15.6c0,2.5-1.9,4.4-4.4,4.4h-62.6
	c-2.5,0-4.4-2.1-4.4-4.4v-97.4c0-2.5,2.1-4.4,4.4-4.4h62.6c2.3,0,4.2,2.1,4.4,4.4V196z"/>
</svg>
