<?xml version="1.0" encoding="utf-8"?>
<!-- Generator: Adobe Illustrator 24.3.0, SVG Export Plug-In . SVG Version: 6.00 Build 0)  -->
<svg version="1.1" id="圖層_1" xmlns="http://www.w3.org/2000/svg" xmlns:xlink="http://www.w3.org/1999/xlink" x="0px" y="0px"
	 viewBox="0 0 448 448" style="enable-background:new 0 0 448 448;" xml:space="preserve">
<style type="text/css">
	.st0{fill:#FFFFFF;}
</style>
<path class="st0" d="M445.7,422.2c0,14.3-10.7,25-24.9,25C189.3,447.2,0.5,257.9,0.5,25.8c0-14.3,10.7-25,24.9-25h87.3
	c14.3,0,24.9,10.7,24.9,25c0,30.4,5.3,58.9,14.3,89.3c1.8,7.1,0,17.9-5.3,25l-57,55.3c33.8,69.6,94.4,126.8,163.8,164.3l55.2-55.3
	c7.1-7.1,17.8-10.7,24.9-5.4c26.7,10.7,57,14.3,89,14.3c14.3,0,24.9,10.7,24.9,25v83.9H445.7z"/>
</svg>
